<svg width="24" height="24" viewBox="0 0 24 24" fill="none" xmlns="http://www.w3.org/2000/svg">
<path d="M7.50094 9.0001H3.50094C3.36833 9.0001 3.24115 9.05277 3.14739 9.14654C3.05362 9.24031 3.00094 9.36749 3.00094 9.5001V21.5001C3.00094 21.6327 3.05362 21.7599 3.14739 21.8536C3.24115 21.9474 3.36833 22.0001 3.50094 22.0001H7.50094C7.63355 22.0001 7.76072 21.9474 7.85449 21.8536C7.94826 21.7599 8.00094 21.6327 8.00094 21.5001V9.5001C8.00094 9.36749 7.94826 9.24031 7.85449 9.14654C7.76072 9.05277 7.63355 9.0001 7.50094 9.0001ZM7.00094 21.0001H4.00094V10.0001H7.00094V21.0001ZM18.0009 9.0001C16.9159 9.0001 15.8609 9.3581 15.0009 10.0191V9.5001C15.0009 9.36749 14.9483 9.24031 14.8545 9.14654C14.7607 9.05277 14.6335 9.0001 14.5009 9.0001H10.5009C10.3683 9.0001 10.2412 9.05277 10.1474 9.14654C10.0536 9.24031 10.0009 9.36749 10.0009 9.5001V21.5001C10.0009 21.6327 10.0536 21.7599 10.1474 21.8536C10.2412 21.9474 10.3683 22.0001 10.5009 22.0001H14.5009C14.6335 22.0001 14.7607 21.9474 14.8545 21.8536C14.9483 21.7599 15.0009 21.6327 15.0009 21.5001V16.0001C15.0009 15.6023 15.159 15.2207 15.4403 14.9394C15.7216 14.6581 16.1031 14.5001 16.5009 14.5001C16.8988 14.5001 17.2803 14.6581 17.5616 14.9394C17.8429 15.2207 18.0009 15.6023 18.0009 16.0001V21.5001C18.0009 21.6327 18.0536 21.7599 18.1474 21.8536C18.2412 21.9474 18.3683 22.0001 18.5009 22.0001H22.5009C22.6335 22.0001 22.7607 21.9474 22.8545 21.8536C22.9483 21.7599 23.0009 21.6327 23.0009 21.5001V14.0001C22.9994 12.6745 22.4721 11.4037 21.5347 10.4663C20.5974 9.52898 19.3265 9.00168 18.0009 9.0001V9.0001ZM22.0009 21.0001H19.0009V16.0001C19.0009 15.3371 18.7375 14.7012 18.2687 14.2323C17.7999 13.7635 17.164 13.5001 16.5009 13.5001C15.8379 13.5001 15.202 13.7635 14.7332 14.2323C14.2643 14.7012 14.0009 15.3371 14.0009 16.0001V21.0001H11.0009V10.0001H14.0009V11.2031C14.0009 11.3067 14.033 11.4077 14.0929 11.4922C14.1527 11.5767 14.2374 11.6405 14.3351 11.6749C14.4327 11.7092 14.5387 11.7124 14.6383 11.684C14.7378 11.6555 14.8261 11.5969 14.8909 11.5161C15.4045 10.8652 16.1083 10.3907 16.9044 10.1589C17.7004 9.9271 18.5489 9.94948 19.3316 10.2229C20.1144 10.4964 20.7922 11.0073 21.2707 11.6844C21.7492 12.3615 22.0045 13.171 22.0009 14.0001V21.0001ZM5.86894 2.0021C5.75144 1.99381 5.63353 1.99315 5.51594 2.0001C5.14171 1.97463 4.76623 2.02628 4.41277 2.15183C4.05931 2.27739 3.7354 2.47418 3.46109 2.73002C3.18678 2.98586 2.96793 3.2953 2.81808 3.63916C2.66823 3.98303 2.59058 4.354 2.58994 4.7291C2.58683 5.10027 2.66001 5.46813 2.80494 5.80986C2.94987 6.15159 3.16345 6.4599 3.43245 6.71568C3.70145 6.97146 4.02013 7.16925 4.36872 7.29679C4.71731 7.42432 5.08839 7.47889 5.45894 7.4571H5.48694C5.84512 7.48218 6.20473 7.43647 6.54525 7.32257C6.88576 7.20867 7.20051 7.02882 7.47151 6.79329C7.74252 6.55775 7.96448 6.27114 8.12473 5.94983C8.28497 5.62851 8.38036 5.27878 8.40544 4.9206C8.43052 4.56241 8.38481 4.2028 8.27091 3.86229C8.15702 3.52177 7.97717 3.20703 7.74163 2.93602C7.50609 2.66501 7.21949 2.44305 6.89817 2.28281C6.57685 2.12256 6.22712 2.02718 5.86894 2.0021V2.0021ZM5.83394 6.4601C5.71846 6.47059 5.60222 6.46959 5.48694 6.4571H5.45894C5.21827 6.47519 4.97647 6.4429 4.74898 6.36229C4.52149 6.28167 4.3133 6.15451 4.13772 5.98892C3.96214 5.82333 3.82301 5.62294 3.72923 5.40056C3.63545 5.17817 3.58906 4.93868 3.59304 4.69736C3.59702 4.45604 3.65127 4.21821 3.75234 3.99903C3.8534 3.77986 3.99906 3.58417 4.18001 3.42446C4.36095 3.26475 4.57321 3.14452 4.80324 3.07145C5.03326 2.99838 5.27599 2.97408 5.51594 3.0001C5.97476 2.95793 6.43155 3.09975 6.7858 3.39437C7.14006 3.68899 7.36277 4.11227 7.40494 4.5711C7.44711 5.02992 7.30528 5.4867 7.01066 5.84096C6.71604 6.19522 6.29276 6.41793 5.83394 6.4601V6.4601Z" fill="#FFF6ED"/>
</svg>
